<?xml version="1.0" encoding="utf-8" standalone="no"?>
<!DOCTYPE svg PUBLIC "-//W3C//DTD SVG 1.1//EN"
  "http://www.w3.org/Graphics/SVG/1.1/DTD/svg11.dtd">
<svg xmlns:xlink="http://www.w3.org/1999/xlink" width="122.4pt" height="122.4pt" viewBox="0 0 122.4 122.4" xmlns="http://www.w3.org/2000/svg" version="1.1">
 <metadata>
  <rdf:RDF xmlns:dc="http://purl.org/dc/elements/1.1/" xmlns:cc="http://creativecommons.org/ns#" xmlns:rdf="http://www.w3.org/1999/02/22-rdf-syntax-ns#">
   <cc:Work>
    <dc:type rdf:resource="http://purl.org/dc/dcmitype/StillImage"/>
    <dc:date>2025-03-15T19:41:51.884873</dc:date>
    <dc:format>image/svg+xml</dc:format>
    <dc:creator>
     <cc:Agent>
      <dc:title>Matplotlib v3.9.2, https://matplotlib.org/</dc:title>
     </cc:Agent>
    </dc:creator>
   </cc:Work>
  </rdf:RDF>
 </metadata>
 <defs>
  <style type="text/css">*{stroke-linejoin: round; stroke-linecap: butt}</style>
 </defs>
 <g id="figure_1">
  <g id="patch_1">
   <path d="M 0 122.4 
L 122.4 122.4 
L 122.4 0 
L 0 0 
L 0 122.4 
z
" style="fill: none"/>
  </g>
  <g id="axes_1">
   <g id="line2d_1">
    <path d="M 66.701316 57.20306 
L 57.20306 55.698684 
L 55.698684 65.19694 
L 65.19694 66.701316 
L 66.701316 57.20306 
" clip-path="url(#p0502518c96)" style="fill: none; stroke: #99abc4; stroke-width: 4.4; stroke-linecap: round"/>
   </g>
   <g id="line2d_2">
    <path d="M 65.402631 48.265631 
L 48.265631 56.997369 
L 56.997369 74.134369 
L 74.134369 65.402631 
L 65.402631 48.265631 
" clip-path="url(#p0502518c96)" style="fill: none; stroke: #335889; stroke-width: 4.6; stroke-linecap: round"/>
   </g>
   <g id="line2d_3">
    <path d="M 54.896053 41.798447 
L 41.798447 67.503947 
L 67.503947 80.601553 
L 80.601553 54.896053 
L 54.896053 41.798447 
" clip-path="url(#p0502518c96)" style="fill: none; stroke: #002556; stroke-width: 4.8; stroke-linecap: round"/>
   </g>
   <g id="line2d_4">
    <path d="M 39.194738 45.212241 
L 45.212241 83.205262 
L 83.205262 77.187759 
L 77.187759 39.194738 
L 39.194738 45.212241 
" clip-path="url(#p0502518c96)" style="fill: none; stroke: #00122b; stroke-width: 5; stroke-linecap: round"/>
   </g>
   <g id="line2d_5">
    <path d="M 27.2 61.2 
L 61.2 95.2 
L 95.2 61.2 
L 61.2 27.2 
L 27.2 61.2 
" clip-path="url(#p0502518c96)" style="fill: none; stroke: #000000; stroke-width: 5.2; stroke-linecap: round"/>
   </g>
  </g>
 </g>
 <defs>
  <clipPath id="p0502518c96">
   <rect x="0" y="-0" width="122.4" height="122.4"/>
  </clipPath>
 </defs>
</svg>
