<?xml version="1.0" encoding="utf-8" standalone="no"?>
<!DOCTYPE svg PUBLIC "-//W3C//DTD SVG 1.1//EN"
  "http://www.w3.org/Graphics/SVG/1.1/DTD/svg11.dtd">
<svg xmlns:xlink="http://www.w3.org/1999/xlink" width="50.4pt" height="50.4pt" viewBox="0 0 50.4 50.4" xmlns="http://www.w3.org/2000/svg" version="1.1">
 <metadata>
  <rdf:RDF xmlns:dc="http://purl.org/dc/elements/1.1/" xmlns:cc="http://creativecommons.org/ns#" xmlns:rdf="http://www.w3.org/1999/02/22-rdf-syntax-ns#">
   <cc:Work>
    <dc:type rdf:resource="http://purl.org/dc/dcmitype/StillImage"/>
    <dc:date>2024-11-27T19:38:36.255282</dc:date>
    <dc:format>image/svg+xml</dc:format>
    <dc:creator>
     <cc:Agent>
      <dc:title>Matplotlib v3.9.2, https://matplotlib.org/</dc:title>
     </cc:Agent>
    </dc:creator>
   </cc:Work>
  </rdf:RDF>
 </metadata>
 <defs>
  <style type="text/css">*{stroke-linejoin: round; stroke-linecap: butt}</style>
 </defs>
 <g id="figure_1">
  <g id="patch_1">
   <path d="M 0 50.4 
L 50.4 50.4 
L 50.4 0 
L 0 0 
L 0 50.4 
z
" style="fill: none"/>
  </g>
  <g id="axes_1">
   <g id="PathCollection_1">
    <defs>
     <path id="mcf3634e1ba" d="M 0 0.723326 
C 0.191828 0.723326 0.375826 0.647112 0.511469 0.511469 
C 0.647112 0.375826 0.723326 0.191828 0.723326 0 
C 0.723326 -0.191828 0.647112 -0.375826 0.511469 -0.511469 
C 0.375826 -0.647112 0.191828 -0.723326 0 -0.723326 
C -0.191828 -0.723326 -0.375826 -0.647112 -0.511469 -0.511469 
C -0.647112 -0.375826 -0.723326 -0.191828 -0.723326 0 
C -0.723326 0.191828 -0.647112 0.375826 -0.511469 0.511469 
C -0.375826 0.647112 -0.191828 0.723326 0 0.723326 
z
"/>
    </defs>
    <g clip-path="url(#p318b6a79f8)">
     <use xlink:href="#mcf3634e1ba" x="11.761854" y="21.680307"/>
    </g>
   </g>
   <g id="PathCollection_2">
    <defs>
     <path id="m02b0e28e15" d="M 0 0.569081 
C 0.150922 0.569081 0.295683 0.509119 0.402401 0.402401 
C 0.509119 0.295683 0.569081 0.150922 0.569081 0 
C 0.569081 -0.150922 0.509119 -0.295683 0.402401 -0.402401 
C 0.295683 -0.509119 0.150922 -0.569081 0 -0.569081 
C -0.150922 -0.569081 -0.295683 -0.509119 -0.402401 -0.402401 
C -0.509119 -0.295683 -0.569081 -0.150922 -0.569081 0 
C -0.569081 0.150922 -0.509119 0.295683 -0.402401 0.402401 
C -0.295683 0.509119 -0.150922 0.569081 0 0.569081 
z
"/>
    </defs>
    <g clip-path="url(#p318b6a79f8)">
     <use xlink:href="#m02b0e28e15" x="15.875311" y="35.123411"/>
    </g>
   </g>
   <g id="PathCollection_3">
    <defs>
     <path id="m40a67352b4" d="M 0 1.212479 
C 0.321553 1.212479 0.62998 1.084725 0.857352 0.857352 
C 1.084725 0.62998 1.212479 0.321553 1.212479 0 
C 1.212479 -0.321553 1.084725 -0.62998 0.857352 -0.857352 
C 0.62998 -1.084725 0.321553 -1.212479 0 -1.212479 
C -0.321553 -1.212479 -0.62998 -1.084725 -0.857352 -0.857352 
C -1.084725 -0.62998 -1.212479 -0.321553 -1.212479 0 
C -1.212479 0.321553 -1.084725 0.62998 -0.857352 0.857352 
C -0.62998 1.084725 -0.321553 1.212479 0 1.212479 
z
"/>
    </defs>
    <g clip-path="url(#p318b6a79f8)">
     <use xlink:href="#m40a67352b4" x="5.696265" y="26.498969"/>
    </g>
   </g>
   <g id="PathCollection_4">
    <defs>
     <path id="m05d2a50161" d="M 0 0.60005 
C 0.159135 0.60005 0.311774 0.536825 0.424299 0.424299 
C 0.536825 0.311774 0.60005 0.159135 0.60005 0 
C 0.60005 -0.159135 0.536825 -0.311774 0.424299 -0.424299 
C 0.311774 -0.536825 0.159135 -0.60005 0 -0.60005 
C -0.159135 -0.60005 -0.311774 -0.536825 -0.424299 -0.424299 
C -0.536825 -0.311774 -0.60005 -0.159135 -0.60005 0 
C -0.60005 0.159135 -0.536825 0.311774 -0.424299 0.424299 
C -0.311774 0.536825 -0.159135 0.60005 0 0.60005 
z
"/>
    </defs>
    <g clip-path="url(#p318b6a79f8)">
     <use xlink:href="#m05d2a50161" x="25.092372" y="25.175134"/>
    </g>
   </g>
   <g id="PathCollection_5">
    <defs>
     <path id="m275892628a" d="M 0 0.712632 
C 0.188992 0.712632 0.370269 0.637545 0.503907 0.503907 
C 0.637545 0.370269 0.712632 0.188992 0.712632 0 
C 0.712632 -0.188992 0.637545 -0.370269 0.503907 -0.503907 
C 0.370269 -0.637545 0.188992 -0.712632 0 -0.712632 
C -0.188992 -0.712632 -0.370269 -0.637545 -0.503907 -0.503907 
C -0.637545 -0.370269 -0.712632 -0.188992 -0.712632 0 
C -0.712632 0.188992 -0.637545 0.370269 -0.503907 0.503907 
C -0.370269 0.637545 -0.188992 0.712632 0 0.712632 
z
"/>
    </defs>
    <g clip-path="url(#p318b6a79f8)">
     <use xlink:href="#m275892628a" x="9.67382" y="24.797817"/>
    </g>
   </g>
   <g id="PathCollection_6">
    <defs>
     <path id="me11256bc18" d="M 0 0.9917 
C 0.263002 0.9917 0.515267 0.887208 0.701238 0.701238 
C 0.887208 0.515267 0.9917 0.263002 0.9917 0 
C 0.9917 -0.263002 0.887208 -0.515267 0.701238 -0.701238 
C 0.515267 -0.887208 0.263002 -0.9917 0 -0.9917 
C -0.263002 -0.9917 -0.515267 -0.887208 -0.701238 -0.701238 
C -0.887208 -0.515267 -0.9917 -0.263002 -0.9917 0 
C -0.9917 0.263002 -0.887208 0.515267 -0.701238 0.701238 
C -0.515267 0.887208 -0.263002 0.9917 0 0.9917 
z
"/>
    </defs>
    <g clip-path="url(#p318b6a79f8)">
     <use xlink:href="#me11256bc18" x="25.608564" y="44.008451"/>
    </g>
   </g>
   <g id="PathCollection_7">
    <defs>
     <path id="m5d29530c69" d="M 0 1.054905 
C 0.279764 1.054905 0.548108 0.943754 0.745931 0.745931 
C 0.943754 0.548108 1.054905 0.279764 1.054905 0 
C 1.054905 -0.279764 0.943754 -0.548108 0.745931 -0.745931 
C 0.548108 -0.943754 0.279764 -1.054905 0 -1.054905 
C -0.279764 -1.054905 -0.548108 -0.943754 -0.745931 -0.745931 
C -0.943754 -0.548108 -1.054905 -0.279764 -1.054905 0 
C -1.054905 0.279764 -0.943754 0.548108 -0.745931 0.745931 
C -0.548108 0.943754 -0.279764 1.054905 0 1.054905 
z
"/>
    </defs>
    <g clip-path="url(#p318b6a79f8)">
     <use xlink:href="#m5d29530c69" x="14.696704" y="36.487985"/>
    </g>
   </g>
   <g id="PathCollection_8">
    <defs>
     <path id="mb609f66f3a" d="M 0 1.123351 
C 0.297916 1.123351 0.58367 1.004987 0.794329 0.794329 
C 1.004987 0.58367 1.123351 0.297916 1.123351 0 
C 1.123351 -0.297916 1.004987 -0.58367 0.794329 -0.794329 
C 0.58367 -1.004987 0.297916 -1.123351 0 -1.123351 
C -0.297916 -1.123351 -0.58367 -1.004987 -0.794329 -0.794329 
C -1.004987 -0.58367 -1.123351 -0.297916 -1.123351 0 
C -1.123351 0.297916 -1.004987 0.58367 -0.794329 0.794329 
C -0.58367 1.004987 -0.297916 1.123351 0 1.123351 
z
"/>
    </defs>
    <g clip-path="url(#p318b6a79f8)">
     <use xlink:href="#mb609f66f3a" x="44.690784" y="37.88177"/>
    </g>
   </g>
   <g id="PathCollection_9">
    <defs>
     <path id="mcc681f84c5" d="M 0 0.863009 
C 0.228873 0.863009 0.448402 0.772077 0.61024 0.61024 
C 0.772077 0.448402 0.863009 0.228873 0.863009 0 
C 0.863009 -0.228873 0.772077 -0.448402 0.61024 -0.61024 
C 0.448402 -0.772077 0.228873 -0.863009 0 -0.863009 
C -0.228873 -0.863009 -0.448402 -0.772077 -0.61024 -0.61024 
C -0.772077 -0.448402 -0.863009 -0.228873 -0.863009 0 
C -0.863009 0.228873 -0.772077 0.448402 -0.61024 0.61024 
C -0.448402 0.772077 -0.228873 0.863009 0 0.863009 
z
"/>
    </defs>
    <g clip-path="url(#p318b6a79f8)">
     <use xlink:href="#mcc681f84c5" x="24.710401" y="24.709588"/>
    </g>
   </g>
   <g id="PathCollection_10">
    <defs>
     <path id="m04be28193d" d="M 0 0.653613 
C 0.17334 0.653613 0.339604 0.584744 0.462174 0.462174 
C 0.584744 0.339604 0.653613 0.17334 0.653613 0 
C 0.653613 -0.17334 0.584744 -0.339604 0.462174 -0.462174 
C 0.339604 -0.584744 0.17334 -0.653613 0 -0.653613 
C -0.17334 -0.653613 -0.339604 -0.584744 -0.462174 -0.462174 
C -0.584744 -0.339604 -0.653613 -0.17334 -0.653613 0 
C -0.653613 0.17334 -0.584744 0.339604 -0.462174 0.462174 
C -0.339604 0.584744 -0.17334 0.653613 0 0.653613 
z
"/>
    </defs>
    <g clip-path="url(#p318b6a79f8)">
     <use xlink:href="#m04be28193d" x="32.530514" y="1.800443"/>
    </g>
   </g>
   <g id="PathCollection_11">
    <defs>
     <path id="m89b8da2222" d="M 0 1.179901 
C 0.312913 1.179901 0.613053 1.055579 0.834316 0.834316 
C 1.055579 0.613053 1.179901 0.312913 1.179901 0 
C 1.179901 -0.312913 1.055579 -0.613053 0.834316 -0.834316 
C 0.613053 -1.055579 0.312913 -1.179901 0 -1.179901 
C -0.312913 -1.179901 -0.613053 -1.055579 -0.834316 -0.834316 
C -1.055579 -0.613053 -1.179901 -0.312913 -1.179901 0 
C -1.179901 0.312913 -1.055579 0.613053 -0.834316 0.834316 
C -0.613053 1.055579 -0.312913 1.179901 0 1.179901 
z
"/>
    </defs>
    <g clip-path="url(#p318b6a79f8)">
     <use xlink:href="#m89b8da2222" x="4.215032" y="21.821518"/>
    </g>
   </g>
   <g id="PathCollection_12">
    <defs>
     <path id="mb9d6a8caf9" d="M 0 0.919581 
C 0.243876 0.919581 0.477796 0.822688 0.650242 0.650242 
C 0.822688 0.477796 0.919581 0.243876 0.919581 0 
C 0.919581 -0.243876 0.822688 -0.477796 0.650242 -0.650242 
C 0.477796 -0.822688 0.243876 -0.919581 0 -0.919581 
C -0.243876 -0.919581 -0.477796 -0.822688 -0.650242 -0.650242 
C -0.822688 -0.477796 -0.919581 -0.243876 -0.919581 0 
C -0.919581 0.243876 -0.822688 0.477796 -0.650242 0.650242 
C -0.477796 0.822688 -0.243876 0.919581 0 0.919581 
z
"/>
    </defs>
    <g clip-path="url(#p318b6a79f8)">
     <use xlink:href="#mb9d6a8caf9" x="40.171395" y="35.459931"/>
    </g>
   </g>
   <g id="PathCollection_13">
    <defs>
     <path id="m5bbcf4fd8d" d="M 0 0.858768 
C 0.227748 0.858768 0.446199 0.768283 0.607241 0.607241 
C 0.768283 0.446199 0.858768 0.227748 0.858768 0 
C 0.858768 -0.227748 0.768283 -0.446199 0.607241 -0.607241 
C 0.446199 -0.768283 0.227748 -0.858768 0 -0.858768 
C -0.227748 -0.858768 -0.446199 -0.768283 -0.607241 -0.607241 
C -0.768283 -0.446199 -0.858768 -0.227748 -0.858768 0 
C -0.858768 0.227748 -0.768283 0.446199 -0.607241 0.607241 
C -0.446199 0.768283 -0.227748 0.858768 0 0.858768 
z
"/>
    </defs>
    <g clip-path="url(#p318b6a79f8)">
     <use xlink:href="#m5bbcf4fd8d" x="46.099345" y="15.878001"/>
    </g>
   </g>
   <g id="PathCollection_14">
    <defs>
     <path id="mddc3b1ccdf" d="M 0 1.093906 
C 0.290107 1.093906 0.568371 0.978645 0.773508 0.773508 
C 0.978645 0.568371 1.093906 0.290107 1.093906 0 
C 1.093906 -0.290107 0.978645 -0.568371 0.773508 -0.773508 
C 0.568371 -0.978645 0.290107 -1.093906 0 -1.093906 
C -0.290107 -1.093906 -0.568371 -0.978645 -0.773508 -0.773508 
C -0.978645 -0.568371 -1.093906 -0.290107 -1.093906 0 
C -1.093906 0.290107 -0.978645 0.568371 -0.773508 0.773508 
C -0.568371 0.978645 -0.290107 1.093906 0 1.093906 
z
"/>
    </defs>
    <g clip-path="url(#p318b6a79f8)">
     <use xlink:href="#mddc3b1ccdf" x="27.316265" y="37.944243"/>
    </g>
   </g>
   <g id="PathCollection_15">
    <defs>
     <path id="m71708b49cd" d="M 0 1.083467 
C 0.287339 1.083467 0.562948 0.969306 0.766127 0.766127 
C 0.969306 0.562948 1.083467 0.287339 1.083467 0 
C 1.083467 -0.287339 0.969306 -0.562948 0.766127 -0.766127 
C 0.562948 -0.969306 0.287339 -1.083467 0 -1.083467 
C -0.287339 -1.083467 -0.562948 -0.969306 -0.766127 -0.766127 
C -0.969306 -0.562948 -1.083467 -0.287339 -1.083467 0 
C -1.083467 0.287339 -0.969306 0.562948 -0.766127 0.766127 
C -0.562948 0.969306 -0.287339 1.083467 0 1.083467 
z
"/>
    </defs>
    <g clip-path="url(#p318b6a79f8)">
     <use xlink:href="#m71708b49cd" x="15.443954" y="18.098221"/>
    </g>
   </g>
   <g id="PathCollection_16">
    <defs>
     <path id="md16df8891e" d="M 0 1.060026 
C 0.281122 1.060026 0.550768 0.948335 0.749551 0.749551 
C 0.948335 0.550768 1.060026 0.281122 1.060026 0 
C 1.060026 -0.281122 0.948335 -0.550768 0.749551 -0.749551 
C 0.550768 -0.948335 0.281122 -1.060026 0 -1.060026 
C -0.281122 -1.060026 -0.550768 -0.948335 -0.749551 -0.749551 
C -0.948335 -0.550768 -1.060026 -0.281122 -1.060026 0 
C -1.060026 0.281122 -0.948335 0.550768 -0.749551 0.749551 
C -0.550768 0.948335 -0.281122 1.060026 0 1.060026 
z
"/>
    </defs>
    <g clip-path="url(#p318b6a79f8)">
     <use xlink:href="#md16df8891e" x="30.617497" y="39.305991"/>
    </g>
   </g>
   <g id="PathCollection_17">
    <defs>
     <path id="mdde6bec6e4" d="M 0 0.658282 
C 0.174578 0.658282 0.34203 0.588921 0.465476 0.465476 
C 0.588921 0.34203 0.658282 0.174578 0.658282 0 
C 0.658282 -0.174578 0.588921 -0.34203 0.465476 -0.465476 
C 0.34203 -0.588921 0.174578 -0.658282 0 -0.658282 
C -0.174578 -0.658282 -0.34203 -0.588921 -0.465476 -0.465476 
C -0.588921 -0.34203 -0.658282 -0.174578 -0.658282 0 
C -0.658282 0.174578 -0.588921 0.34203 -0.465476 0.465476 
C -0.34203 0.588921 -0.174578 0.658282 0 0.658282 
z
"/>
    </defs>
    <g clip-path="url(#p318b6a79f8)">
     <use xlink:href="#mdde6bec6e4" x="25.040468" y="18.142302"/>
    </g>
   </g>
   <g id="PathCollection_18">
    <defs>
     <path id="m117fc76081" d="M 0 1.0048 
C 0.266476 1.0048 0.522074 0.898928 0.710501 0.710501 
C 0.898928 0.522074 1.0048 0.266476 1.0048 0 
C 1.0048 -0.266476 0.898928 -0.522074 0.710501 -0.710501 
C 0.522074 -0.898928 0.266476 -1.0048 0 -1.0048 
C -0.266476 -1.0048 -0.522074 -0.898928 -0.710501 -0.710501 
C -0.898928 -0.522074 -1.0048 -0.266476 -1.0048 0 
C -1.0048 0.266476 -0.898928 0.522074 -0.710501 0.710501 
C -0.522074 0.898928 -0.266476 1.0048 0 1.0048 
z
"/>
    </defs>
    <g clip-path="url(#p318b6a79f8)">
     <use xlink:href="#m117fc76081" x="22.192673" y="19.608917"/>
    </g>
   </g>
   <g id="PathCollection_19">
    <defs>
     <path id="m14ac0ac51f" d="M 0 1.075434 
C 0.285208 1.075434 0.558774 0.962119 0.760446 0.760446 
C 0.962119 0.558774 1.075434 0.285208 1.075434 0 
C 1.075434 -0.285208 0.962119 -0.558774 0.760446 -0.760446 
C 0.558774 -0.962119 0.285208 -1.075434 0 -1.075434 
C -0.285208 -1.075434 -0.558774 -0.962119 -0.760446 -0.760446 
C -0.962119 -0.558774 -1.075434 -0.285208 -1.075434 0 
C -1.075434 0.285208 -0.962119 0.558774 -0.760446 0.760446 
C -0.558774 0.962119 -0.285208 1.075434 0 1.075434 
z
"/>
    </defs>
    <g clip-path="url(#p318b6a79f8)">
     <use xlink:href="#m14ac0ac51f" x="49.173132" y="23.671653"/>
    </g>
   </g>
   <g id="PathCollection_20">
    <defs>
     <path id="m8137213b1e" d="M 0 0.860378 
C 0.228175 0.860378 0.447035 0.769723 0.608379 0.608379 
C 0.769723 0.447035 0.860378 0.228175 0.860378 0 
C 0.860378 -0.228175 0.769723 -0.447035 0.608379 -0.608379 
C 0.447035 -0.769723 0.228175 -0.860378 0 -0.860378 
C -0.228175 -0.860378 -0.447035 -0.769723 -0.608379 -0.608379 
C -0.769723 -0.447035 -0.860378 -0.228175 -0.860378 0 
C -0.860378 0.228175 -0.769723 0.447035 -0.608379 0.608379 
C -0.447035 0.769723 -0.228175 0.860378 0 0.860378 
z
"/>
    </defs>
    <g clip-path="url(#p318b6a79f8)">
     <use xlink:href="#m8137213b1e" x="34.820401" y="24.648144"/>
    </g>
   </g>
   <g id="PathCollection_21">
    <defs>
     <path id="mafcfe09534" d="M 0 0.952718 
C 0.252664 0.952718 0.495013 0.852334 0.673673 0.673673 
C 0.852334 0.495013 0.952718 0.252664 0.952718 0 
C 0.952718 -0.252664 0.852334 -0.495013 0.673673 -0.673673 
C 0.495013 -0.852334 0.252664 -0.952718 0 -0.952718 
C -0.252664 -0.952718 -0.495013 -0.852334 -0.673673 -0.673673 
C -0.852334 -0.495013 -0.952718 -0.252664 -0.952718 0 
C -0.952718 0.252664 -0.852334 0.495013 -0.673673 0.673673 
C -0.495013 0.852334 -0.252664 0.952718 0 0.952718 
z
"/>
    </defs>
    <g clip-path="url(#p318b6a79f8)">
     <use xlink:href="#mafcfe09534" x="28.219707" y="29.32151"/>
    </g>
   </g>
   <g id="PathCollection_22">
    <defs>
     <path id="m204466aed8" d="M 0 1.221677 
C 0.323993 1.221677 0.634759 1.092953 0.863856 0.863856 
C 1.092953 0.634759 1.221677 0.323993 1.221677 0 
C 1.221677 -0.323993 1.092953 -0.634759 0.863856 -0.863856 
C 0.634759 -1.092953 0.323993 -1.221677 0 -1.221677 
C -0.323993 -1.221677 -0.634759 -1.092953 -0.863856 -0.863856 
C -1.092953 -0.634759 -1.221677 -0.323993 -1.221677 0 
C -1.221677 0.323993 -1.092953 0.634759 -0.863856 0.863856 
C -0.634759 1.092953 -0.323993 1.221677 0 1.221677 
z
"/>
    </defs>
    <g clip-path="url(#p318b6a79f8)">
     <use xlink:href="#m204466aed8" x="18.84518" y="49.186744"/>
    </g>
   </g>
   <g id="PathCollection_23">
    <defs>
     <path id="m8571a8b046" d="M 0 1.057192 
C 0.280371 1.057192 0.549296 0.945799 0.747547 0.747547 
C 0.945799 0.549296 1.057192 0.280371 1.057192 0 
C 1.057192 -0.280371 0.945799 -0.549296 0.747547 -0.747547 
C 0.549296 -0.945799 0.280371 -1.057192 0 -1.057192 
C -0.280371 -1.057192 -0.549296 -0.945799 -0.747547 -0.747547 
C -0.945799 -0.549296 -1.057192 -0.280371 -1.057192 0 
C -1.057192 0.280371 -0.945799 0.549296 -0.747547 0.747547 
C -0.549296 0.945799 -0.280371 1.057192 0 1.057192 
z
"/>
    </defs>
    <g clip-path="url(#p318b6a79f8)">
     <use xlink:href="#m8571a8b046" x="27.976073" y="25.10548"/>
    </g>
   </g>
   <g id="PathCollection_24">
    <defs>
     <path id="m9620b11265" d="M 0 0.819888 
C 0.217437 0.819888 0.425997 0.733499 0.579748 0.579748 
C 0.733499 0.425997 0.819888 0.217437 0.819888 0 
C 0.819888 -0.217437 0.733499 -0.425997 0.579748 -0.579748 
C 0.425997 -0.733499 0.217437 -0.819888 0 -0.819888 
C -0.217437 -0.819888 -0.425997 -0.733499 -0.579748 -0.579748 
C -0.733499 -0.425997 -0.819888 -0.217437 -0.819888 0 
C -0.819888 0.217437 -0.733499 0.425997 -0.579748 0.579748 
C -0.425997 0.733499 -0.217437 0.819888 0 0.819888 
z
"/>
    </defs>
    <g clip-path="url(#p318b6a79f8)">
     <use xlink:href="#m9620b11265" x="26.048032" y="18.427761"/>
    </g>
   </g>
   <g id="PathCollection_25">
    <defs>
     <path id="m8c0daa1734" d="M 0 0.951829 
C 0.252428 0.951829 0.494551 0.851539 0.673045 0.673045 
C 0.851539 0.494551 0.951829 0.252428 0.951829 0 
C 0.951829 -0.252428 0.851539 -0.494551 0.673045 -0.673045 
C 0.494551 -0.851539 0.252428 -0.951829 0 -0.951829 
C -0.252428 -0.951829 -0.494551 -0.851539 -0.673045 -0.673045 
C -0.851539 -0.494551 -0.951829 -0.252428 -0.951829 0 
C -0.951829 0.252428 -0.851539 0.494551 -0.673045 0.673045 
C -0.494551 0.851539 -0.252428 0.951829 0 0.951829 
z
"/>
    </defs>
    <g clip-path="url(#p318b6a79f8)">
     <use xlink:href="#m8c0daa1734" x="23.827636" y="18.45352"/>
    </g>
   </g>
   <g id="PathCollection_26">
    <defs>
     <path id="mfb67894125" d="M 0 0.62778 
C 0.166489 0.62778 0.326182 0.561633 0.443907 0.443907 
C 0.561633 0.326182 0.62778 0.166489 0.62778 0 
C 0.62778 -0.166489 0.561633 -0.326182 0.443907 -0.443907 
C 0.326182 -0.561633 0.166489 -0.62778 0 -0.62778 
C -0.166489 -0.62778 -0.326182 -0.561633 -0.443907 -0.443907 
C -0.561633 -0.326182 -0.62778 -0.166489 -0.62778 0 
C -0.62778 0.166489 -0.561633 0.326182 -0.443907 0.443907 
C -0.326182 0.561633 -0.166489 0.62778 0 0.62778 
z
"/>
    </defs>
    <g clip-path="url(#p318b6a79f8)">
     <use xlink:href="#mfb67894125" x="40.562848" y="27.994814"/>
    </g>
   </g>
   <g id="PathCollection_27">
    <defs>
     <path id="m59578d3bcd" d="M 0 1.159671 
C 0.307548 1.159671 0.602542 1.037481 0.820012 0.820012 
C 1.037481 0.602542 1.159671 0.307548 1.159671 0 
C 1.159671 -0.307548 1.037481 -0.602542 0.820012 -0.820012 
C 0.602542 -1.037481 0.307548 -1.159671 0 -1.159671 
C -0.307548 -1.159671 -0.602542 -1.037481 -0.820012 -0.820012 
C -1.037481 -0.602542 -1.159671 -0.307548 -1.159671 0 
C -1.159671 0.307548 -1.037481 0.602542 -0.820012 0.820012 
C -0.602542 1.037481 -0.307548 1.159671 0 1.159671 
z
"/>
    </defs>
    <g clip-path="url(#p318b6a79f8)">
     <use xlink:href="#m59578d3bcd" x="32.147284" y="34.492884"/>
    </g>
   </g>
   <g id="PathCollection_28">
    <defs>
     <path id="m2da8bd9899" d="M 0 1.028189 
C 0.272679 1.028189 0.534226 0.919853 0.72704 0.72704 
C 0.919853 0.534226 1.028189 0.272679 1.028189 0 
C 1.028189 -0.272679 0.919853 -0.534226 0.72704 -0.72704 
C 0.534226 -0.919853 0.272679 -1.028189 0 -1.028189 
C -0.272679 -1.028189 -0.534226 -0.919853 -0.72704 -0.72704 
C -0.919853 -0.534226 -1.028189 -0.272679 -1.028189 0 
C -1.028189 0.272679 -0.919853 0.534226 -0.72704 0.72704 
C -0.534226 0.919853 -0.272679 1.028189 0 1.028189 
z
"/>
    </defs>
    <g clip-path="url(#p318b6a79f8)">
     <use xlink:href="#m2da8bd9899" x="35.796411" y="8.220295"/>
    </g>
   </g>
   <g id="PathCollection_29">
    <defs>
     <path id="m9899df1f94" d="M 0 1.06877 
C 0.283441 1.06877 0.555311 0.956157 0.755734 0.755734 
C 0.956157 0.555311 1.06877 0.283441 1.06877 0 
C 1.06877 -0.283441 0.956157 -0.555311 0.755734 -0.755734 
C 0.555311 -0.956157 0.283441 -1.06877 0 -1.06877 
C -0.283441 -1.06877 -0.555311 -0.956157 -0.755734 -0.755734 
C -0.956157 -0.555311 -1.06877 -0.283441 -1.06877 0 
C -1.06877 0.283441 -0.956157 0.555311 -0.755734 0.755734 
C -0.555311 0.956157 -0.283441 1.06877 0 1.06877 
z
"/>
    </defs>
    <g clip-path="url(#p318b6a79f8)">
     <use xlink:href="#m9899df1f94" x="11.090691" y="27.977158"/>
    </g>
   </g>
   <g id="PathCollection_30">
    <defs>
     <path id="m8ae629b033" d="M 0 0.939914 
C 0.249268 0.939914 0.48836 0.840879 0.664619 0.664619 
C 0.840879 0.48836 0.939914 0.249268 0.939914 0 
C 0.939914 -0.249268 0.840879 -0.48836 0.664619 -0.664619 
C 0.48836 -0.840879 0.249268 -0.939914 0 -0.939914 
C -0.249268 -0.939914 -0.48836 -0.840879 -0.664619 -0.664619 
C -0.840879 -0.48836 -0.939914 -0.249268 -0.939914 0 
C -0.939914 0.249268 -0.840879 0.48836 -0.664619 0.664619 
C -0.48836 0.840879 -0.249268 0.939914 0 0.939914 
z
"/>
    </defs>
    <g clip-path="url(#p318b6a79f8)">
     <use xlink:href="#m8ae629b033" x="34.482101" y="33.677898"/>
    </g>
   </g>
   <g id="PathCollection_31">
    <defs>
     <path id="mdb6dc2c105" d="M 0 0.603321 
C 0.160003 0.603321 0.313474 0.539752 0.426613 0.426613 
C 0.539752 0.313474 0.603321 0.160003 0.603321 0 
C 0.603321 -0.160003 0.539752 -0.313474 0.426613 -0.426613 
C 0.313474 -0.539752 0.160003 -0.603321 0 -0.603321 
C -0.160003 -0.603321 -0.313474 -0.539752 -0.426613 -0.426613 
C -0.539752 -0.313474 -0.603321 -0.160003 -0.603321 0 
C -0.603321 0.160003 -0.539752 0.313474 -0.426613 0.426613 
C -0.313474 0.539752 -0.160003 0.603321 0 0.603321 
z
"/>
    </defs>
    <g clip-path="url(#p318b6a79f8)">
     <use xlink:href="#mdb6dc2c105" x="35.145969" y="16.710278"/>
    </g>
   </g>
   <g id="PathCollection_32">
    <defs>
     <path id="m691d81b8ae" d="M 0 0.911203 
C 0.241654 0.911203 0.473443 0.815193 0.644318 0.644318 
C 0.815193 0.473443 0.911203 0.241654 0.911203 0 
C 0.911203 -0.241654 0.815193 -0.473443 0.644318 -0.644318 
C 0.473443 -0.815193 0.241654 -0.911203 0 -0.911203 
C -0.241654 -0.911203 -0.473443 -0.815193 -0.644318 -0.644318 
C -0.815193 -0.473443 -0.911203 -0.241654 -0.911203 0 
C -0.911203 0.241654 -0.815193 0.473443 -0.644318 0.644318 
C -0.473443 0.815193 -0.241654 0.911203 0 0.911203 
z
"/>
    </defs>
    <g clip-path="url(#p318b6a79f8)">
     <use xlink:href="#m691d81b8ae" x="21.612903" y="16.718905"/>
    </g>
   </g>
   <g id="PathCollection_33">
    <defs>
     <path id="md3a9b66974" d="M 0 0.596249 
C 0.158127 0.596249 0.309799 0.533424 0.421611 0.421611 
C 0.533424 0.309799 0.596249 0.158127 0.596249 0 
C 0.596249 -0.158127 0.533424 -0.309799 0.421611 -0.421611 
C 0.309799 -0.533424 0.158127 -0.596249 0 -0.596249 
C -0.158127 -0.596249 -0.309799 -0.533424 -0.421611 -0.421611 
C -0.533424 -0.309799 -0.596249 -0.158127 -0.596249 0 
C -0.596249 0.158127 -0.533424 0.309799 -0.421611 0.421611 
C -0.309799 0.533424 -0.158127 0.596249 0 0.596249 
z
"/>
    </defs>
    <g clip-path="url(#p318b6a79f8)">
     <use xlink:href="#md3a9b66974" x="32.389464" y="16.259918"/>
    </g>
   </g>
   <g id="PathCollection_34">
    <defs>
     <path id="mb3cb215179" d="M 0 0.941697 
C 0.249741 0.941697 0.489287 0.842474 0.665881 0.665881 
C 0.842474 0.489287 0.941697 0.249741 0.941697 0 
C 0.941697 -0.249741 0.842474 -0.489287 0.665881 -0.665881 
C 0.489287 -0.842474 0.249741 -0.941697 0 -0.941697 
C -0.249741 -0.941697 -0.489287 -0.842474 -0.665881 -0.665881 
C -0.842474 -0.489287 -0.941697 -0.249741 -0.941697 0 
C -0.941697 0.249741 -0.842474 0.489287 -0.665881 0.665881 
C -0.489287 0.842474 -0.249741 0.941697 0 0.941697 
z
"/>
    </defs>
    <g clip-path="url(#p318b6a79f8)">
     <use xlink:href="#mb3cb215179" x="33.051262" y="31.168305"/>
    </g>
   </g>
   <g id="PathCollection_35">
    <defs>
     <path id="maedab6283e" d="M 0 0.53984 
C 0.143167 0.53984 0.28049 0.482959 0.381724 0.381724 
C 0.482959 0.28049 0.53984 0.143167 0.53984 0 
C 0.53984 -0.143167 0.482959 -0.28049 0.381724 -0.381724 
C 0.28049 -0.482959 0.143167 -0.53984 0 -0.53984 
C -0.143167 -0.53984 -0.28049 -0.482959 -0.381724 -0.381724 
C -0.482959 -0.28049 -0.53984 -0.143167 -0.53984 0 
C -0.53984 0.143167 -0.482959 0.28049 -0.381724 0.381724 
C -0.28049 0.482959 -0.143167 0.53984 0 0.53984 
z
"/>
    </defs>
    <g clip-path="url(#p318b6a79f8)">
     <use xlink:href="#maedab6283e" x="27.308885" y="7.218029"/>
    </g>
   </g>
   <g id="PathCollection_36">
    <defs>
     <path id="m42ab9d4868" d="M 0 0.531023 
C 0.140829 0.531023 0.275909 0.475071 0.37549 0.37549 
C 0.475071 0.275909 0.531023 0.140829 0.531023 0 
C 0.531023 -0.140829 0.475071 -0.275909 0.37549 -0.37549 
C 0.275909 -0.475071 0.140829 -0.531023 0 -0.531023 
C -0.140829 -0.531023 -0.275909 -0.475071 -0.37549 -0.37549 
C -0.475071 -0.275909 -0.531023 -0.140829 -0.531023 0 
C -0.531023 0.140829 -0.475071 0.275909 -0.37549 0.37549 
C -0.275909 0.475071 -0.140829 0.531023 0 0.531023 
z
"/>
    </defs>
    <g clip-path="url(#p318b6a79f8)">
     <use xlink:href="#m42ab9d4868" x="11.529686" y="40.120703"/>
    </g>
   </g>
   <g id="PathCollection_37">
    <defs>
     <path id="me0352d0448" d="M 0 0.729619 
C 0.193497 0.729619 0.379095 0.652742 0.515919 0.515919 
C 0.652742 0.379095 0.729619 0.193497 0.729619 0 
C 0.729619 -0.193497 0.652742 -0.379095 0.515919 -0.515919 
C 0.379095 -0.652742 0.193497 -0.729619 0 -0.729619 
C -0.193497 -0.729619 -0.379095 -0.652742 -0.515919 -0.515919 
C -0.652742 -0.379095 -0.729619 -0.193497 -0.729619 0 
C -0.729619 0.193497 -0.652742 0.379095 -0.515919 0.515919 
C -0.379095 0.652742 -0.193497 0.729619 0 0.729619 
z
"/>
    </defs>
    <g clip-path="url(#p318b6a79f8)">
     <use xlink:href="#me0352d0448" x="33.130095" y="37.245879"/>
    </g>
   </g>
   <g id="PathCollection_38">
    <defs>
     <path id="mcb99f30fad" d="M 0 1.03362 
C 0.274119 1.03362 0.537048 0.924711 0.73088 0.73088 
C 0.924711 0.537048 1.03362 0.274119 1.03362 0 
C 1.03362 -0.274119 0.924711 -0.537048 0.73088 -0.73088 
C 0.537048 -0.924711 0.274119 -1.03362 0 -1.03362 
C -0.274119 -1.03362 -0.537048 -0.924711 -0.73088 -0.73088 
C -0.924711 -0.537048 -1.03362 -0.274119 -1.03362 0 
C -1.03362 0.274119 -0.924711 0.537048 -0.73088 0.73088 
C -0.537048 0.924711 -0.274119 1.03362 0 1.03362 
z
"/>
    </defs>
    <g clip-path="url(#p318b6a79f8)">
     <use xlink:href="#mcb99f30fad" x="6.306126" y="26.709807"/>
    </g>
   </g>
   <g id="PathCollection_39">
    <defs>
     <path id="m35a72f675c" d="M 0 0.886938 
C 0.235219 0.886938 0.460835 0.793485 0.62716 0.62716 
C 0.793485 0.460835 0.886938 0.235219 0.886938 0 
C 0.886938 -0.235219 0.793485 -0.460835 0.62716 -0.62716 
C 0.460835 -0.793485 0.235219 -0.886938 0 -0.886938 
C -0.235219 -0.886938 -0.460835 -0.793485 -0.62716 -0.62716 
C -0.793485 -0.460835 -0.886938 -0.235219 -0.886938 0 
C -0.886938 0.235219 -0.793485 0.460835 -0.62716 0.62716 
C -0.460835 0.793485 -0.235219 0.886938 0 0.886938 
z
"/>
    </defs>
    <g clip-path="url(#p318b6a79f8)">
     <use xlink:href="#m35a72f675c" x="25.520083" y="25.291316"/>
    </g>
   </g>
   <g id="PathCollection_40">
    <defs>
     <path id="m7aaa4010d8" d="M 0 1.027906 
C 0.272604 1.027906 0.534079 0.9196 0.72684 0.72684 
C 0.9196 0.534079 1.027906 0.272604 1.027906 0 
C 1.027906 -0.272604 0.9196 -0.534079 0.72684 -0.72684 
C 0.534079 -0.9196 0.272604 -1.027906 0 -1.027906 
C -0.272604 -1.027906 -0.534079 -0.9196 -0.72684 -0.72684 
C -0.9196 -0.534079 -1.027906 -0.272604 -1.027906 0 
C -1.027906 0.272604 -0.9196 0.534079 -0.72684 0.72684 
C -0.534079 0.9196 -0.272604 1.027906 0 1.027906 
z
"/>
    </defs>
    <g clip-path="url(#p318b6a79f8)">
     <use xlink:href="#m7aaa4010d8" x="17.26309" y="11.013832"/>
    </g>
   </g>
   <g id="PathCollection_41">
    <defs>
     <path id="m1ce6dc4625" d="M 0 1.152935 
C 0.305762 1.152935 0.599042 1.031455 0.815248 0.815248 
C 1.031455 0.599042 1.152935 0.305762 1.152935 0 
C 1.152935 -0.305762 1.031455 -0.599042 0.815248 -0.815248 
C 0.599042 -1.031455 0.305762 -1.152935 0 -1.152935 
C -0.305762 -1.152935 -0.599042 -1.031455 -0.815248 -0.815248 
C -1.031455 -0.599042 -1.152935 -0.305762 -1.152935 0 
C -1.152935 0.305762 -1.031455 0.599042 -0.815248 0.815248 
C -0.599042 1.031455 -0.305762 1.152935 0 1.152935 
z
"/>
    </defs>
    <g clip-path="url(#p318b6a79f8)">
     <use xlink:href="#m1ce6dc4625" x="35.317599" y="19.589905"/>
    </g>
   </g>
   <g id="PathCollection_42">
    <defs>
     <path id="m29b86f3572" d="M 0 0.554532 
C 0.147064 0.554532 0.288124 0.496103 0.392113 0.392113 
C 0.496103 0.288124 0.554532 0.147064 0.554532 0 
C 0.554532 -0.147064 0.496103 -0.288124 0.392113 -0.392113 
C 0.288124 -0.496103 0.147064 -0.554532 0 -0.554532 
C -0.147064 -0.554532 -0.288124 -0.496103 -0.392113 -0.392113 
C -0.496103 -0.288124 -0.554532 -0.147064 -0.554532 0 
C -0.554532 0.147064 -0.496103 0.288124 -0.392113 0.392113 
C -0.288124 0.496103 -0.147064 0.554532 0 0.554532 
z
"/>
    </defs>
    <g clip-path="url(#p318b6a79f8)">
     <use xlink:href="#m29b86f3572" x="15.683407" y="34.643058"/>
    </g>
   </g>
   <g id="PathCollection_43">
    <defs>
     <path id="m501d1b1fd2" d="M 0 0.895786 
C 0.237565 0.895786 0.465432 0.801401 0.633417 0.633417 
C 0.801401 0.465432 0.895786 0.237565 0.895786 0 
C 0.895786 -0.237565 0.801401 -0.465432 0.633417 -0.633417 
C 0.465432 -0.801401 0.237565 -0.895786 0 -0.895786 
C -0.237565 -0.895786 -0.465432 -0.801401 -0.633417 -0.633417 
C -0.801401 -0.465432 -0.895786 -0.237565 -0.895786 0 
C -0.895786 0.237565 -0.801401 0.465432 -0.633417 0.633417 
C -0.465432 0.801401 -0.237565 0.895786 0 0.895786 
z
"/>
    </defs>
    <g clip-path="url(#p318b6a79f8)">
     <use xlink:href="#m501d1b1fd2" x="11.883895" y="10.589309"/>
    </g>
   </g>
   <g id="PathCollection_44">
    <defs>
     <path id="mce0e75b9b9" d="M 0 0.708364 
C 0.18786 0.708364 0.368052 0.633727 0.500889 0.500889 
C 0.633727 0.368052 0.708364 0.18786 0.708364 0 
C 0.708364 -0.18786 0.633727 -0.368052 0.500889 -0.500889 
C 0.368052 -0.633727 0.18786 -0.708364 0 -0.708364 
C -0.18786 -0.708364 -0.368052 -0.633727 -0.500889 -0.500889 
C -0.633727 -0.368052 -0.708364 -0.18786 -0.708364 0 
C -0.708364 0.18786 -0.633727 0.368052 -0.500889 0.500889 
C -0.368052 0.633727 -0.18786 0.708364 0 0.708364 
z
"/>
    </defs>
    <g clip-path="url(#p318b6a79f8)">
     <use xlink:href="#mce0e75b9b9" x="35.894149" y="22.250175"/>
    </g>
   </g>
   <g id="PathCollection_45">
    <defs>
     <path id="m4646967ec0" d="M 0 1.125911 
C 0.298595 1.125911 0.585001 1.007278 0.796139 0.796139 
C 1.007278 0.585001 1.125911 0.298595 1.125911 0 
C 1.125911 -0.298595 1.007278 -0.585001 0.796139 -0.796139 
C 0.585001 -1.007278 0.298595 -1.125911 0 -1.125911 
C -0.298595 -1.125911 -0.585001 -1.007278 -0.796139 -0.796139 
C -1.007278 -0.585001 -1.125911 -0.298595 -1.125911 0 
C -1.125911 0.298595 -1.007278 0.585001 -0.796139 0.796139 
C -0.585001 1.007278 -0.298595 1.125911 0 1.125911 
z
"/>
    </defs>
    <g clip-path="url(#p318b6a79f8)">
     <use xlink:href="#m4646967ec0" x="21.578182" y="49.147531"/>
    </g>
   </g>
   <g id="PathCollection_46">
    <defs>
     <path id="m815a70fe29" d="M 0 1.134968 
C 0.300997 1.134968 0.589706 1.015381 0.802544 0.802544 
C 1.015381 0.589706 1.134968 0.300997 1.134968 0 
C 1.134968 -0.300997 1.015381 -0.589706 0.802544 -0.802544 
C 0.589706 -1.015381 0.300997 -1.134968 0 -1.134968 
C -0.300997 -1.134968 -0.589706 -1.015381 -0.802544 -0.802544 
C -1.015381 -0.589706 -1.134968 -0.300997 -1.134968 0 
C -1.134968 0.300997 -1.015381 0.589706 -0.802544 0.802544 
C -0.589706 1.015381 -0.300997 1.134968 0 1.134968 
z
"/>
    </defs>
    <g clip-path="url(#p318b6a79f8)">
     <use xlink:href="#m815a70fe29" x="39.494657" y="10.302289"/>
    </g>
   </g>
   <g id="PathCollection_47">
    <defs>
     <path id="m0963300d3f" d="M 0 0.709484 
C 0.188157 0.709484 0.368633 0.634728 0.501681 0.501681 
C 0.634728 0.368633 0.709484 0.188157 0.709484 0 
C 0.709484 -0.188157 0.634728 -0.368633 0.501681 -0.501681 
C 0.368633 -0.634728 0.188157 -0.709484 0 -0.709484 
C -0.188157 -0.709484 -0.368633 -0.634728 -0.501681 -0.501681 
C -0.634728 -0.368633 -0.709484 -0.188157 -0.709484 0 
C -0.709484 0.188157 -0.634728 0.368633 -0.501681 0.501681 
C -0.368633 0.634728 -0.188157 0.709484 0 0.709484 
z
"/>
    </defs>
    <g clip-path="url(#p318b6a79f8)">
     <use xlink:href="#m0963300d3f" x="25.548834" y="25.979771"/>
    </g>
   </g>
   <g id="PathCollection_48">
    <defs>
     <path id="mb23401c3b3" d="M 0 1.205051 
C 0.319583 1.205051 0.62612 1.078079 0.852099 0.852099 
C 1.078079 0.62612 1.205051 0.319583 1.205051 0 
C 1.205051 -0.319583 1.078079 -0.62612 0.852099 -0.852099 
C 0.62612 -1.078079 0.319583 -1.205051 0 -1.205051 
C -0.319583 -1.205051 -0.62612 -1.078079 -0.852099 -0.852099 
C -1.078079 -0.62612 -1.205051 -0.319583 -1.205051 0 
C -1.205051 0.319583 -1.078079 0.62612 -0.852099 0.852099 
C -0.62612 1.078079 -0.319583 1.205051 0 1.205051 
z
"/>
    </defs>
    <g clip-path="url(#p318b6a79f8)">
     <use xlink:href="#mb23401c3b3" x="12.129542" y="27.279785"/>
    </g>
   </g>
   <g id="PathCollection_49">
    <defs>
     <path id="mf862cf9df0" d="M 0 0.509477 
C 0.135115 0.509477 0.264714 0.455795 0.360254 0.360254 
C 0.455795 0.264714 0.509477 0.135115 0.509477 0 
C 0.509477 -0.135115 0.455795 -0.264714 0.360254 -0.360254 
C 0.264714 -0.455795 0.135115 -0.509477 0 -0.509477 
C -0.135115 -0.509477 -0.264714 -0.455795 -0.360254 -0.360254 
C -0.455795 -0.264714 -0.509477 -0.135115 -0.509477 0 
C -0.509477 0.135115 -0.455795 0.264714 -0.360254 0.360254 
C -0.264714 0.455795 -0.135115 0.509477 0 0.509477 
z
"/>
    </defs>
    <g clip-path="url(#p318b6a79f8)">
     <use xlink:href="#mf862cf9df0" x="46.697762" y="15.276724"/>
    </g>
   </g>
   <g id="PathCollection_50">
    <defs>
     <path id="mcc8913ecd0" d="M 0 0.917414 
C 0.243301 0.917414 0.47667 0.82075 0.64871 0.64871 
C 0.82075 0.47667 0.917414 0.243301 0.917414 0 
C 0.917414 -0.243301 0.82075 -0.47667 0.64871 -0.64871 
C 0.47667 -0.82075 0.243301 -0.917414 0 -0.917414 
C -0.243301 -0.917414 -0.47667 -0.82075 -0.64871 -0.64871 
C -0.82075 -0.47667 -0.917414 -0.243301 -0.917414 0 
C -0.917414 0.243301 -0.82075 0.47667 -0.64871 0.64871 
C -0.47667 0.82075 -0.243301 0.917414 0 0.917414 
z
"/>
    </defs>
    <g clip-path="url(#p318b6a79f8)">
     <use xlink:href="#mcc8913ecd0" x="0.989981" y="19.394275"/>
    </g>
   </g>
   <g id="PathCollection_51">
    <defs>
     <path id="m8ff668078a" d="M 0 1.194471 
C 0.316777 1.194471 0.620623 1.068614 0.844619 0.844619 
C 1.068614 0.620623 1.194471 0.316777 1.194471 0 
C 1.194471 -0.316777 1.068614 -0.620623 0.844619 -0.844619 
C 0.620623 -1.068614 0.316777 -1.194471 0 -1.194471 
C -0.316777 -1.194471 -0.620623 -1.068614 -0.844619 -0.844619 
C -1.068614 -0.620623 -1.194471 -0.316777 -1.194471 0 
C -1.194471 0.316777 -1.068614 0.620623 -0.844619 0.844619 
C -0.620623 1.068614 -0.316777 1.194471 0 1.194471 
z
"/>
    </defs>
    <g clip-path="url(#p318b6a79f8)">
     <use xlink:href="#m8ff668078a" x="25.45643" y="28.335594"/>
    </g>
   </g>
   <g id="PathCollection_52">
    <defs>
     <path id="mb707836b88" d="M 0 0.799001 
C 0.211898 0.799001 0.415145 0.714814 0.564979 0.564979 
C 0.714814 0.415145 0.799001 0.211898 0.799001 0 
C 0.799001 -0.211898 0.714814 -0.415145 0.564979 -0.564979 
C 0.415145 -0.714814 0.211898 -0.799001 0 -0.799001 
C -0.211898 -0.799001 -0.415145 -0.714814 -0.564979 -0.564979 
C -0.714814 -0.415145 -0.799001 -0.211898 -0.799001 0 
C -0.799001 0.211898 -0.714814 0.415145 -0.564979 0.564979 
C -0.415145 0.714814 -0.211898 0.799001 0 0.799001 
z
"/>
    </defs>
    <g clip-path="url(#p318b6a79f8)">
     <use xlink:href="#mb707836b88" x="32.987592" y="14.152511"/>
    </g>
   </g>
   <g id="PathCollection_53">
    <defs>
     <path id="m4aba50f673" d="M 0 0.885263 
C 0.234774 0.885263 0.459965 0.791986 0.625975 0.625975 
C 0.791986 0.459965 0.885263 0.234774 0.885263 0 
C 0.885263 -0.234774 0.791986 -0.459965 0.625975 -0.625975 
C 0.459965 -0.791986 0.234774 -0.885263 0 -0.885263 
C -0.234774 -0.885263 -0.459965 -0.791986 -0.625975 -0.625975 
C -0.791986 -0.459965 -0.885263 -0.234774 -0.885263 0 
C -0.885263 0.234774 -0.791986 0.459965 -0.625975 0.625975 
C -0.459965 0.791986 -0.234774 0.885263 0 0.885263 
z
"/>
    </defs>
    <g clip-path="url(#p318b6a79f8)">
     <use xlink:href="#m4aba50f673" x="25.607691" y="25.646609"/>
    </g>
   </g>
   <g id="PathCollection_54">
    <defs>
     <path id="me151fa6a27" d="M 0 1.031892 
C 0.273661 1.031892 0.53615 0.923165 0.729658 0.729658 
C 0.923165 0.53615 1.031892 0.273661 1.031892 0 
C 1.031892 -0.273661 0.923165 -0.53615 0.729658 -0.729658 
C 0.53615 -0.923165 0.273661 -1.031892 0 -1.031892 
C -0.273661 -1.031892 -0.53615 -0.923165 -0.729658 -0.729658 
C -0.923165 -0.53615 -1.031892 -0.273661 -1.031892 0 
C -1.031892 0.273661 -0.923165 0.53615 -0.729658 0.729658 
C -0.53615 0.923165 -0.273661 1.031892 0 1.031892 
z
"/>
    </defs>
    <g clip-path="url(#p318b6a79f8)">
     <use xlink:href="#me151fa6a27" x="24.594824" y="20.538257"/>
    </g>
   </g>
   <g id="PathCollection_55">
    <defs>
     <path id="ma41e5bc25f" d="M 0 0.696728 
C 0.184774 0.696728 0.362006 0.623316 0.492661 0.492661 
C 0.623316 0.362006 0.696728 0.184774 0.696728 0 
C 0.696728 -0.184774 0.623316 -0.362006 0.492661 -0.492661 
C 0.362006 -0.623316 0.184774 -0.696728 0 -0.696728 
C -0.184774 -0.696728 -0.362006 -0.623316 -0.492661 -0.492661 
C -0.623316 -0.362006 -0.696728 -0.184774 -0.696728 0 
C -0.696728 0.184774 -0.623316 0.362006 -0.492661 0.492661 
C -0.362006 0.623316 -0.184774 0.696728 0 0.696728 
z
"/>
    </defs>
    <g clip-path="url(#p318b6a79f8)">
     <use xlink:href="#ma41e5bc25f" x="19.086371" y="33.275345"/>
    </g>
   </g>
   <g id="PathCollection_56">
    <defs>
     <path id="m82fc4842df" d="M 0 0.824706 
C 0.218715 0.824706 0.428501 0.73781 0.583155 0.583155 
C 0.73781 0.428501 0.824706 0.218715 0.824706 0 
C 0.824706 -0.218715 0.73781 -0.428501 0.583155 -0.583155 
C 0.428501 -0.73781 0.218715 -0.824706 0 -0.824706 
C -0.218715 -0.824706 -0.428501 -0.73781 -0.583155 -0.583155 
C -0.73781 -0.428501 -0.824706 -0.218715 -0.824706 0 
C -0.824706 0.218715 -0.73781 0.428501 -0.583155 0.583155 
C -0.428501 0.73781 -0.218715 0.824706 0 0.824706 
z
"/>
    </defs>
    <g clip-path="url(#p318b6a79f8)">
     <use xlink:href="#m82fc4842df" x="44.525107" y="30.126772"/>
    </g>
   </g>
   <g id="PathCollection_57">
    <defs>
     <path id="m832c807a92" d="M 0 1.084549 
C 0.287626 1.084549 0.56351 0.970274 0.766892 0.766892 
C 0.970274 0.56351 1.084549 0.287626 1.084549 0 
C 1.084549 -0.287626 0.970274 -0.56351 0.766892 -0.766892 
C 0.56351 -0.970274 0.287626 -1.084549 0 -1.084549 
C -0.287626 -1.084549 -0.56351 -0.970274 -0.766892 -0.766892 
C -0.970274 -0.56351 -1.084549 -0.287626 -1.084549 0 
C -1.084549 0.287626 -0.970274 0.56351 -0.766892 0.766892 
C -0.56351 0.970274 -0.287626 1.084549 0 1.084549 
z
"/>
    </defs>
    <g clip-path="url(#p318b6a79f8)">
     <use xlink:href="#m832c807a92" x="24.177418" y="26.040466"/>
    </g>
   </g>
   <g id="PathCollection_58">
    <defs>
     <path id="mcaca9f5335" d="M 0 1.055264 
C 0.279859 1.055264 0.548294 0.944075 0.746184 0.746184 
C 0.944075 0.548294 1.055264 0.279859 1.055264 0 
C 1.055264 -0.279859 0.944075 -0.548294 0.746184 -0.746184 
C 0.548294 -0.944075 0.279859 -1.055264 0 -1.055264 
C -0.279859 -1.055264 -0.548294 -0.944075 -0.746184 -0.746184 
C -0.944075 -0.548294 -1.055264 -0.279859 -1.055264 0 
C -1.055264 0.279859 -0.944075 0.548294 -0.746184 0.746184 
C -0.548294 0.944075 -0.279859 1.055264 0 1.055264 
z
"/>
    </defs>
    <g clip-path="url(#p318b6a79f8)">
     <use xlink:href="#mcaca9f5335" x="14.758647" y="22.628861"/>
    </g>
   </g>
   <g id="PathCollection_59">
    <defs>
     <path id="m8d3a7e271d" d="M 0 1.168878 
C 0.30999 1.168878 0.607325 1.045717 0.826521 0.826521 
C 1.045717 0.607325 1.168878 0.30999 1.168878 0 
C 1.168878 -0.30999 1.045717 -0.607325 0.826521 -0.826521 
C 0.607325 -1.045717 0.30999 -1.168878 0 -1.168878 
C -0.30999 -1.168878 -0.607325 -1.045717 -0.826521 -0.826521 
C -1.045717 -0.607325 -1.168878 -0.30999 -1.168878 0 
C -1.168878 0.30999 -1.045717 0.607325 -0.826521 0.826521 
C -0.607325 1.045717 -0.30999 1.168878 0 1.168878 
z
"/>
    </defs>
    <g clip-path="url(#p318b6a79f8)">
     <use xlink:href="#m8d3a7e271d" x="9.639022" y="40.209207"/>
    </g>
   </g>
   <g id="PathCollection_60">
    <defs>
     <path id="mc033029096" d="M 0 0.563576 
C 0.149462 0.563576 0.292823 0.504194 0.398508 0.398508 
C 0.504194 0.292823 0.563576 0.149462 0.563576 0 
C 0.563576 -0.149462 0.504194 -0.292823 0.398508 -0.398508 
C 0.292823 -0.504194 0.149462 -0.563576 0 -0.563576 
C -0.149462 -0.563576 -0.292823 -0.504194 -0.398508 -0.398508 
C -0.504194 -0.292823 -0.563576 -0.149462 -0.563576 0 
C -0.563576 0.149462 -0.504194 0.292823 -0.398508 0.398508 
C -0.292823 0.504194 -0.149462 0.563576 0 0.563576 
z
"/>
    </defs>
    <g clip-path="url(#p318b6a79f8)">
     <use xlink:href="#mc033029096" x="26.531943" y="21.970311"/>
    </g>
   </g>
   <g id="PathCollection_61">
    <defs>
     <path id="me724f18940" d="M 0 0.927179 
C 0.245891 0.927179 0.481743 0.829485 0.655614 0.655614 
C 0.829485 0.481743 0.927179 0.245891 0.927179 0 
C 0.927179 -0.245891 0.829485 -0.481743 0.655614 -0.655614 
C 0.481743 -0.829485 0.245891 -0.927179 0 -0.927179 
C -0.245891 -0.927179 -0.481743 -0.829485 -0.655614 -0.655614 
C -0.829485 -0.481743 -0.927179 -0.245891 -0.927179 0 
C -0.927179 0.245891 -0.829485 0.481743 -0.655614 0.655614 
C -0.481743 0.829485 -0.245891 0.927179 0 0.927179 
z
"/>
    </defs>
    <g clip-path="url(#p318b6a79f8)">
     <use xlink:href="#me724f18940" x="23.490386" y="32.659114"/>
    </g>
   </g>
   <g id="PathCollection_62">
    <defs>
     <path id="m45df67cbe9" d="M 0 0.720481 
C 0.191074 0.720481 0.374347 0.644567 0.509457 0.509457 
C 0.644567 0.374347 0.720481 0.191074 0.720481 0 
C 0.720481 -0.191074 0.644567 -0.374347 0.509457 -0.509457 
C 0.374347 -0.644567 0.191074 -0.720481 0 -0.720481 
C -0.191074 -0.720481 -0.374347 -0.644567 -0.509457 -0.509457 
C -0.644567 -0.374347 -0.720481 -0.191074 -0.720481 0 
C -0.720481 0.191074 -0.644567 0.374347 -0.509457 0.509457 
C -0.374347 0.644567 -0.191074 0.720481 0 0.720481 
z
"/>
    </defs>
    <g clip-path="url(#p318b6a79f8)">
     <use xlink:href="#m45df67cbe9" x="23.098567" y="22.04303"/>
    </g>
   </g>
   <g id="PathCollection_63">
    <defs>
     <path id="mbc3cc3a2f6" d="M 0 1.220556 
C 0.323695 1.220556 0.634176 1.09195 0.863063 0.863063 
C 1.09195 0.634176 1.220556 0.323695 1.220556 0 
C 1.220556 -0.323695 1.09195 -0.634176 0.863063 -0.863063 
C 0.634176 -1.09195 0.323695 -1.220556 0 -1.220556 
C -0.323695 -1.220556 -0.634176 -1.09195 -0.863063 -0.863063 
C -1.09195 -0.634176 -1.220556 -0.323695 -1.220556 0 
C -1.220556 0.323695 -1.09195 0.634176 -0.863063 0.863063 
C -0.634176 1.09195 -0.323695 1.220556 0 1.220556 
z
"/>
    </defs>
    <g clip-path="url(#p318b6a79f8)">
     <use xlink:href="#mbc3cc3a2f6" x="23.122733" y="30.116066"/>
    </g>
   </g>
   <g id="PathCollection_64">
    <defs>
     <path id="m31bb063044" d="M 0 0.678355 
C 0.179902 0.678355 0.35246 0.60688 0.47967 0.47967 
C 0.60688 0.35246 0.678355 0.179902 0.678355 0 
C 0.678355 -0.179902 0.60688 -0.35246 0.47967 -0.47967 
C 0.35246 -0.60688 0.179902 -0.678355 0 -0.678355 
C -0.179902 -0.678355 -0.35246 -0.60688 -0.47967 -0.47967 
C -0.60688 -0.35246 -0.678355 -0.179902 -0.678355 0 
C -0.678355 0.179902 -0.60688 0.35246 -0.47967 0.47967 
C -0.35246 0.60688 -0.179902 0.678355 0 0.678355 
z
"/>
    </defs>
    <g clip-path="url(#p318b6a79f8)">
     <use xlink:href="#m31bb063044" x="11.235541" y="45.5821"/>
    </g>
   </g>
   <g id="PathCollection_65">
    <defs>
     <path id="me289752c4a" d="M 0 0.918281 
C 0.243531 0.918281 0.477121 0.821525 0.649323 0.649323 
C 0.821525 0.477121 0.918281 0.243531 0.918281 0 
C 0.918281 -0.243531 0.821525 -0.477121 0.649323 -0.649323 
C 0.477121 -0.821525 0.243531 -0.918281 0 -0.918281 
C -0.243531 -0.918281 -0.477121 -0.821525 -0.649323 -0.649323 
C -0.821525 -0.477121 -0.918281 -0.243531 -0.918281 0 
C -0.918281 0.243531 -0.821525 0.477121 -0.649323 0.649323 
C -0.477121 0.821525 -0.243531 0.918281 0 0.918281 
z
"/>
    </defs>
    <g clip-path="url(#p318b6a79f8)">
     <use xlink:href="#me289752c4a" x="23.851461" y="20.401858"/>
    </g>
   </g>
   <g id="PathCollection_66">
    <defs>
     <path id="me9b644d8ee" d="M 0 1.108395 
C 0.29395 1.108395 0.5759 0.991607 0.783754 0.783754 
C 0.991607 0.5759 1.108395 0.29395 1.108395 0 
C 1.108395 -0.29395 0.991607 -0.5759 0.783754 -0.783754 
C 0.5759 -0.991607 0.29395 -1.108395 0 -1.108395 
C -0.29395 -1.108395 -0.5759 -0.991607 -0.783754 -0.783754 
C -0.991607 -0.5759 -1.108395 -0.29395 -1.108395 0 
C -1.108395 0.29395 -0.991607 0.5759 -0.783754 0.783754 
C -0.5759 0.991607 -0.29395 1.108395 0 1.108395 
z
"/>
    </defs>
    <g clip-path="url(#p318b6a79f8)">
     <use xlink:href="#me9b644d8ee" x="37.141129" y="46.992006"/>
    </g>
   </g>
   <g id="PathCollection_67">
    <defs>
     <path id="md5cf60c355" d="M 0 0.931117 
C 0.246935 0.931117 0.48379 0.833009 0.658399 0.658399 
C 0.833009 0.48379 0.931117 0.246935 0.931117 0 
C 0.931117 -0.246935 0.833009 -0.48379 0.658399 -0.658399 
C 0.48379 -0.833009 0.246935 -0.931117 0 -0.931117 
C -0.246935 -0.931117 -0.48379 -0.833009 -0.658399 -0.658399 
C -0.833009 -0.48379 -0.931117 -0.246935 -0.931117 0 
C -0.931117 0.246935 -0.833009 0.48379 -0.658399 0.658399 
C -0.48379 0.833009 -0.246935 0.931117 0 0.931117 
z
"/>
    </defs>
    <g clip-path="url(#p318b6a79f8)">
     <use xlink:href="#md5cf60c355" x="37.16376" y="23.17377"/>
    </g>
   </g>
   <g id="PathCollection_68">
    <defs>
     <path id="m37160ddf8f" d="M 0 1.20133 
C 0.318597 1.20133 0.624187 1.074751 0.849469 0.849469 
C 1.074751 0.624187 1.20133 0.318597 1.20133 0 
C 1.20133 -0.318597 1.074751 -0.624187 0.849469 -0.849469 
C 0.624187 -1.074751 0.318597 -1.20133 0 -1.20133 
C -0.318597 -1.20133 -0.624187 -1.074751 -0.849469 -0.849469 
C -1.074751 -0.624187 -1.20133 -0.318597 -1.20133 0 
C -1.20133 0.318597 -1.074751 0.624187 -0.849469 0.849469 
C -0.624187 1.074751 -0.318597 1.20133 0 1.20133 
z
"/>
    </defs>
    <g clip-path="url(#p318b6a79f8)">
     <use xlink:href="#m37160ddf8f" x="36.809588" y="18.30603"/>
    </g>
   </g>
   <g id="PathCollection_69">
    <defs>
     <path id="m28300c8f73" d="M 0 0.851331 
C 0.225776 0.851331 0.442334 0.761629 0.601982 0.601982 
C 0.761629 0.442334 0.851331 0.225776 0.851331 0 
C 0.851331 -0.225776 0.761629 -0.442334 0.601982 -0.601982 
C 0.442334 -0.761629 0.225776 -0.851331 0 -0.851331 
C -0.225776 -0.851331 -0.442334 -0.761629 -0.601982 -0.601982 
C -0.761629 -0.442334 -0.851331 -0.225776 -0.851331 0 
C -0.851331 0.225776 -0.761629 0.442334 -0.601982 0.601982 
C -0.442334 0.761629 -0.225776 0.851331 0 0.851331 
z
"/>
    </defs>
    <g clip-path="url(#p318b6a79f8)">
     <use xlink:href="#m28300c8f73" x="23.376415" y="27.836071"/>
    </g>
   </g>
   <g id="PathCollection_70">
    <defs>
     <path id="mb3ebee4cc7" d="M 0 1.039545 
C 0.275691 1.039545 0.540127 0.930012 0.735069 0.735069 
C 0.930012 0.540127 1.039545 0.275691 1.039545 0 
C 1.039545 -0.275691 0.930012 -0.540127 0.735069 -0.735069 
C 0.540127 -0.930012 0.275691 -1.039545 0 -1.039545 
C -0.275691 -1.039545 -0.540127 -0.930012 -0.735069 -0.735069 
C -0.930012 -0.540127 -1.039545 -0.275691 -1.039545 0 
C -1.039545 0.275691 -0.930012 0.540127 -0.735069 0.735069 
C -0.540127 0.930012 -0.275691 1.039545 0 1.039545 
z
"/>
    </defs>
    <g clip-path="url(#p318b6a79f8)">
     <use xlink:href="#mb3ebee4cc7" x="25.227289" y="24.971997"/>
    </g>
   </g>
   <g id="PathCollection_71">
    <defs>
     <path id="m8b7c2c9c07" d="M 0 0.919054 
C 0.243736 0.919054 0.477522 0.822217 0.649869 0.649869 
C 0.822217 0.477522 0.919054 0.243736 0.919054 0 
C 0.919054 -0.243736 0.822217 -0.477522 0.649869 -0.649869 
C 0.477522 -0.822217 0.243736 -0.919054 0 -0.919054 
C -0.243736 -0.919054 -0.477522 -0.822217 -0.649869 -0.649869 
C -0.822217 -0.477522 -0.919054 -0.243736 -0.919054 0 
C -0.919054 0.243736 -0.822217 0.477522 -0.649869 0.649869 
C -0.477522 0.822217 -0.243736 0.919054 0 0.919054 
z
"/>
    </defs>
    <g clip-path="url(#p318b6a79f8)">
     <use xlink:href="#m8b7c2c9c07" x="22.61136" y="23.608912"/>
    </g>
   </g>
   <g id="PathCollection_72">
    <defs>
     <path id="m6c0f350954" d="M 0 1.033208 
C 0.27401 1.033208 0.536834 0.924343 0.730589 0.730589 
C 0.924343 0.536834 1.033208 0.27401 1.033208 0 
C 1.033208 -0.27401 0.924343 -0.536834 0.730589 -0.730589 
C 0.536834 -0.924343 0.27401 -1.033208 0 -1.033208 
C -0.27401 -1.033208 -0.536834 -0.924343 -0.730589 -0.730589 
C -0.924343 -0.536834 -1.033208 -0.27401 -1.033208 0 
C -1.033208 0.27401 -0.924343 0.536834 -0.730589 0.730589 
C -0.536834 0.924343 -0.27401 1.033208 0 1.033208 
z
"/>
    </defs>
    <g clip-path="url(#p318b6a79f8)">
     <use xlink:href="#m6c0f350954" x="31.582923" y="43.583524"/>
    </g>
   </g>
   <g id="PathCollection_73">
    <defs>
     <path id="mb0be1fc94b" d="M 0 1.041769 
C 0.27628 1.041769 0.541282 0.932002 0.736642 0.736642 
C 0.932002 0.541282 1.041769 0.27628 1.041769 0 
C 1.041769 -0.27628 0.932002 -0.541282 0.736642 -0.736642 
C 0.541282 -0.932002 0.27628 -1.041769 0 -1.041769 
C -0.27628 -1.041769 -0.541282 -0.932002 -0.736642 -0.736642 
C -0.932002 -0.541282 -1.041769 -0.27628 -1.041769 0 
C -1.041769 0.27628 -0.932002 0.541282 -0.736642 0.736642 
C -0.541282 0.932002 -0.27628 1.041769 0 1.041769 
z
"/>
    </defs>
    <g clip-path="url(#p318b6a79f8)">
     <use xlink:href="#mb0be1fc94b" x="0.406755" y="20.915213"/>
    </g>
   </g>
   <g id="PathCollection_74">
    <defs>
     <path id="m622086ccfd" d="M 0 0.783693 
C 0.207838 0.783693 0.407191 0.701118 0.554155 0.554155 
C 0.701118 0.407191 0.783693 0.207838 0.783693 0 
C 0.783693 -0.207838 0.701118 -0.407191 0.554155 -0.554155 
C 0.407191 -0.701118 0.207838 -0.783693 0 -0.783693 
C -0.207838 -0.783693 -0.407191 -0.701118 -0.554155 -0.554155 
C -0.701118 -0.407191 -0.783693 -0.207838 -0.783693 0 
C -0.783693 0.207838 -0.701118 0.407191 -0.554155 0.554155 
C -0.407191 0.701118 -0.207838 0.783693 0 0.783693 
z
"/>
    </defs>
    <g clip-path="url(#p318b6a79f8)">
     <use xlink:href="#m622086ccfd" x="25.094195" y="25.491703"/>
    </g>
   </g>
   <g id="PathCollection_75">
    <defs>
     <path id="mf80c9631e0" d="M 0 0.872829 
C 0.231477 0.872829 0.453505 0.780863 0.617184 0.617184 
C 0.780863 0.453505 0.872829 0.231477 0.872829 0 
C 0.872829 -0.231477 0.780863 -0.453505 0.617184 -0.617184 
C 0.453505 -0.780863 0.231477 -0.872829 0 -0.872829 
C -0.231477 -0.872829 -0.453505 -0.780863 -0.617184 -0.617184 
C -0.780863 -0.453505 -0.872829 -0.231477 -0.872829 0 
C -0.872829 0.231477 -0.780863 0.453505 -0.617184 0.617184 
C -0.453505 0.780863 -0.231477 0.872829 0 0.872829 
z
"/>
    </defs>
    <g clip-path="url(#p318b6a79f8)">
     <use xlink:href="#mf80c9631e0" x="33.547137" y="25.163829"/>
    </g>
   </g>
   <g id="PathCollection_76">
    <defs>
     <path id="m0e46a9e5a0" d="M 0 1.218901 
C 0.323256 1.218901 0.633316 1.09047 0.861893 0.861893 
C 1.09047 0.633316 1.218901 0.323256 1.218901 0 
C 1.218901 -0.323256 1.09047 -0.633316 0.861893 -0.861893 
C 0.633316 -1.09047 0.323256 -1.218901 0 -1.218901 
C -0.323256 -1.218901 -0.633316 -1.09047 -0.861893 -0.861893 
C -1.09047 -0.633316 -1.218901 -0.323256 -1.218901 0 
C -1.218901 0.323256 -1.09047 0.633316 -0.861893 0.861893 
C -0.633316 1.09047 -0.323256 1.218901 0 1.218901 
z
"/>
    </defs>
    <g clip-path="url(#p318b6a79f8)">
     <use xlink:href="#m0e46a9e5a0" x="24.760531" y="26.538372"/>
    </g>
   </g>
   <g id="PathCollection_77">
    <defs>
     <path id="m7c893c337e" d="M 0 1.094659 
C 0.290307 1.094659 0.568763 0.979319 0.774041 0.774041 
C 0.979319 0.568763 1.094659 0.290307 1.094659 0 
C 1.094659 -0.290307 0.979319 -0.568763 0.774041 -0.774041 
C 0.568763 -0.979319 0.290307 -1.094659 0 -1.094659 
C -0.290307 -1.094659 -0.568763 -0.979319 -0.774041 -0.774041 
C -0.979319 -0.568763 -1.094659 -0.290307 -1.094659 0 
C -1.094659 0.290307 -0.979319 0.568763 -0.774041 0.774041 
C -0.568763 0.979319 -0.290307 1.094659 0 1.094659 
z
"/>
    </defs>
    <g clip-path="url(#p318b6a79f8)">
     <use xlink:href="#m7c893c337e" x="25.477241" y="24.856685"/>
    </g>
   </g>
   <g id="PathCollection_78">
    <defs>
     <path id="m56394e6f74" d="M 0 0.917162 
C 0.243234 0.917162 0.476539 0.820524 0.648532 0.648532 
C 0.820524 0.476539 0.917162 0.243234 0.917162 0 
C 0.917162 -0.243234 0.820524 -0.476539 0.648532 -0.648532 
C 0.476539 -0.820524 0.243234 -0.917162 0 -0.917162 
C -0.243234 -0.917162 -0.476539 -0.820524 -0.648532 -0.648532 
C -0.820524 -0.476539 -0.917162 -0.243234 -0.917162 0 
C -0.917162 0.243234 -0.820524 0.476539 -0.648532 0.648532 
C -0.476539 0.820524 -0.243234 0.917162 0 0.917162 
z
"/>
    </defs>
    <g clip-path="url(#p318b6a79f8)">
     <use xlink:href="#m56394e6f74" x="42.353626" y="17.975642"/>
    </g>
   </g>
   <g id="PathCollection_79">
    <defs>
     <path id="mee5d093944" d="M 0 0.682211 
C 0.180924 0.682211 0.354463 0.610329 0.482396 0.482396 
C 0.610329 0.354463 0.682211 0.180924 0.682211 0 
C 0.682211 -0.180924 0.610329 -0.354463 0.482396 -0.482396 
C 0.354463 -0.610329 0.180924 -0.682211 0 -0.682211 
C -0.180924 -0.682211 -0.354463 -0.610329 -0.482396 -0.482396 
C -0.610329 -0.354463 -0.682211 -0.180924 -0.682211 0 
C -0.682211 0.180924 -0.610329 0.354463 -0.482396 0.482396 
C -0.354463 0.610329 -0.180924 0.682211 0 0.682211 
z
"/>
    </defs>
    <g clip-path="url(#p318b6a79f8)">
     <use xlink:href="#mee5d093944" x="15.15306" y="45.196285"/>
    </g>
   </g>
   <g id="PathCollection_80">
    <defs>
     <path id="m11dcc35750" d="M 0 1.222021 
C 0.324084 1.222021 0.634937 1.093261 0.864099 0.864099 
C 1.093261 0.634937 1.222021 0.324084 1.222021 0 
C 1.222021 -0.324084 1.093261 -0.634937 0.864099 -0.864099 
C 0.634937 -1.093261 0.324084 -1.222021 0 -1.222021 
C -0.324084 -1.222021 -0.634937 -1.093261 -0.864099 -0.864099 
C -1.093261 -0.634937 -1.222021 -0.324084 -1.222021 0 
C -1.222021 0.324084 -1.093261 0.634937 -0.864099 0.864099 
C -0.634937 1.093261 -0.324084 1.222021 0 1.222021 
z
"/>
    </defs>
    <g clip-path="url(#p318b6a79f8)">
     <use xlink:href="#m11dcc35750" x="8.387084" y="25.433223"/>
    </g>
   </g>
   <g id="PathCollection_81">
    <defs>
     <path id="me490276734" d="M 0 0.813404 
C 0.215717 0.813404 0.422628 0.727698 0.575163 0.575163 
C 0.727698 0.422628 0.813404 0.215717 0.813404 0 
C 0.813404 -0.215717 0.727698 -0.422628 0.575163 -0.575163 
C 0.422628 -0.727698 0.215717 -0.813404 0 -0.813404 
C -0.215717 -0.813404 -0.422628 -0.727698 -0.575163 -0.575163 
C -0.727698 -0.422628 -0.813404 -0.215717 -0.813404 0 
C -0.813404 0.215717 -0.727698 0.422628 -0.575163 0.575163 
C -0.422628 0.727698 -0.215717 0.813404 0 0.813404 
z
"/>
    </defs>
    <g clip-path="url(#p318b6a79f8)">
     <use xlink:href="#me490276734" x="27.369167" y="26.898003"/>
    </g>
   </g>
   <g id="PathCollection_82">
    <defs>
     <path id="m0bb9dfcf67" d="M 0 0.919271 
C 0.243794 0.919271 0.477635 0.822411 0.650023 0.650023 
C 0.822411 0.477635 0.919271 0.243794 0.919271 0 
C 0.919271 -0.243794 0.822411 -0.477635 0.650023 -0.650023 
C 0.477635 -0.822411 0.243794 -0.919271 0 -0.919271 
C -0.243794 -0.919271 -0.477635 -0.822411 -0.650023 -0.650023 
C -0.822411 -0.477635 -0.919271 -0.243794 -0.919271 0 
C -0.919271 0.243794 -0.822411 0.477635 -0.650023 0.650023 
C -0.477635 0.822411 -0.243794 0.919271 0 0.919271 
z
"/>
    </defs>
    <g clip-path="url(#p318b6a79f8)">
     <use xlink:href="#m0bb9dfcf67" x="23.47188" y="37.050668"/>
    </g>
   </g>
   <g id="PathCollection_83">
    <defs>
     <path id="m637d04b7c1" d="M 0 1.019529 
C 0.270382 1.019529 0.529727 0.912105 0.720916 0.720916 
C 0.912105 0.529727 1.019529 0.270382 1.019529 0 
C 1.019529 -0.270382 0.912105 -0.529727 0.720916 -0.720916 
C 0.529727 -0.912105 0.270382 -1.019529 0 -1.019529 
C -0.270382 -1.019529 -0.529727 -0.912105 -0.720916 -0.720916 
C -0.912105 -0.529727 -1.019529 -0.270382 -1.019529 0 
C -1.019529 0.270382 -0.912105 0.529727 -0.720916 0.720916 
C -0.529727 0.912105 -0.270382 1.019529 0 1.019529 
z
"/>
    </defs>
    <g clip-path="url(#p318b6a79f8)">
     <use xlink:href="#m637d04b7c1" x="14.675383" y="14.784505"/>
    </g>
   </g>
   <g id="PathCollection_84">
    <defs>
     <path id="mab43859ae9" d="M 0 0.663123 
C 0.175862 0.663123 0.344546 0.593252 0.468899 0.468899 
C 0.593252 0.344546 0.663123 0.175862 0.663123 0 
C 0.663123 -0.175862 0.593252 -0.344546 0.468899 -0.468899 
C 0.344546 -0.593252 0.175862 -0.663123 0 -0.663123 
C -0.175862 -0.663123 -0.344546 -0.593252 -0.468899 -0.468899 
C -0.593252 -0.344546 -0.663123 -0.175862 -0.663123 0 
C -0.663123 0.175862 -0.593252 0.344546 -0.468899 0.468899 
C -0.344546 0.593252 -0.175862 0.663123 0 0.663123 
z
"/>
    </defs>
    <g clip-path="url(#p318b6a79f8)">
     <use xlink:href="#mab43859ae9" x="14.741383" y="11.943924"/>
    </g>
   </g>
   <g id="PathCollection_85">
    <defs>
     <path id="m400b5acdab" d="M 0 0.869844 
C 0.230685 0.869844 0.451953 0.778191 0.615072 0.615072 
C 0.778191 0.451953 0.869844 0.230685 0.869844 0 
C 0.869844 -0.230685 0.778191 -0.451953 0.615072 -0.615072 
C 0.451953 -0.778191 0.230685 -0.869844 0 -0.869844 
C -0.230685 -0.869844 -0.451953 -0.778191 -0.615072 -0.615072 
C -0.778191 -0.451953 -0.869844 -0.230685 -0.869844 0 
C -0.869844 0.230685 -0.778191 0.451953 -0.615072 0.615072 
C -0.451953 0.778191 -0.230685 0.869844 0 0.869844 
z
"/>
    </defs>
    <g clip-path="url(#p318b6a79f8)">
     <use xlink:href="#m400b5acdab" x="22.570524" y="25.026992"/>
    </g>
   </g>
   <g id="PathCollection_86">
    <defs>
     <path id="m2705ecc20b" d="M 0 0.6525 
C 0.173045 0.6525 0.339026 0.583748 0.461387 0.461387 
C 0.583748 0.339026 0.6525 0.173045 0.6525 0 
C 0.6525 -0.173045 0.583748 -0.339026 0.461387 -0.461387 
C 0.339026 -0.583748 0.173045 -0.6525 0 -0.6525 
C -0.173045 -0.6525 -0.339026 -0.583748 -0.461387 -0.461387 
C -0.583748 -0.339026 -0.6525 -0.173045 -0.6525 0 
C -0.6525 0.173045 -0.583748 0.339026 -0.461387 0.461387 
C -0.339026 0.583748 -0.173045 0.6525 0 0.6525 
z
"/>
    </defs>
    <g clip-path="url(#p318b6a79f8)">
     <use xlink:href="#m2705ecc20b" x="33.63346" y="23.358611"/>
    </g>
   </g>
   <g id="PathCollection_87">
    <defs>
     <path id="m7539f63e27" d="M 0 1.144564 
C 0.303542 1.144564 0.594692 1.023965 0.809329 0.809329 
C 1.023965 0.594692 1.144564 0.303542 1.144564 0 
C 1.144564 -0.303542 1.023965 -0.594692 0.809329 -0.809329 
C 0.594692 -1.023965 0.303542 -1.144564 0 -1.144564 
C -0.303542 -1.144564 -0.594692 -1.023965 -0.809329 -0.809329 
C -1.023965 -0.594692 -1.144564 -0.303542 -1.144564 0 
C -1.144564 0.303542 -1.023965 0.594692 -0.809329 0.809329 
C -0.594692 1.023965 -0.303542 1.144564 0 1.144564 
z
"/>
    </defs>
    <g clip-path="url(#p318b6a79f8)">
     <use xlink:href="#m7539f63e27" x="26.721514" y="10.063307"/>
    </g>
   </g>
   <g id="PathCollection_88">
    <defs>
     <path id="m1c1245e769" d="M 0 1.093866 
C 0.290097 1.093866 0.568351 0.97861 0.77348 0.77348 
C 0.97861 0.568351 1.093866 0.290097 1.093866 0 
C 1.093866 -0.290097 0.97861 -0.568351 0.77348 -0.77348 
C 0.568351 -0.97861 0.290097 -1.093866 0 -1.093866 
C -0.290097 -1.093866 -0.568351 -0.97861 -0.77348 -0.77348 
C -0.97861 -0.568351 -1.093866 -0.290097 -1.093866 0 
C -1.093866 0.290097 -0.97861 0.568351 -0.77348 0.77348 
C -0.568351 0.97861 -0.290097 1.093866 0 1.093866 
z
"/>
    </defs>
    <g clip-path="url(#p318b6a79f8)">
     <use xlink:href="#m1c1245e769" x="14.351946" y="42.962734"/>
    </g>
   </g>
   <g id="PathCollection_89">
    <defs>
     <path id="m116c33eaae" d="M 0 1.137784 
C 0.301744 1.137784 0.59117 1.0179 0.804535 0.804535 
C 1.0179 0.59117 1.137784 0.301744 1.137784 0 
C 1.137784 -0.301744 1.0179 -0.59117 0.804535 -0.804535 
C 0.59117 -1.0179 0.301744 -1.137784 0 -1.137784 
C -0.301744 -1.137784 -0.59117 -1.0179 -0.804535 -0.804535 
C -1.0179 -0.59117 -1.137784 -0.301744 -1.137784 0 
C -1.137784 0.301744 -1.0179 0.59117 -0.804535 0.804535 
C -0.59117 1.0179 -0.301744 1.137784 0 1.137784 
z
"/>
    </defs>
    <g clip-path="url(#p318b6a79f8)">
     <use xlink:href="#m116c33eaae" x="30.405814" y="37.757446"/>
    </g>
   </g>
   <g id="PathCollection_90">
    <defs>
     <path id="m20eb47b2f1" d="M 0 1.215044 
C 0.322233 1.215044 0.631312 1.087019 0.859166 0.859166 
C 1.087019 0.631312 1.215044 0.322233 1.215044 0 
C 1.215044 -0.322233 1.087019 -0.631312 0.859166 -0.859166 
C 0.631312 -1.087019 0.322233 -1.215044 0 -1.215044 
C -0.322233 -1.215044 -0.631312 -1.087019 -0.859166 -0.859166 
C -1.087019 -0.631312 -1.215044 -0.322233 -1.215044 0 
C -1.215044 0.322233 -1.087019 0.631312 -0.859166 0.859166 
C -0.631312 1.087019 -0.322233 1.215044 0 1.215044 
z
"/>
    </defs>
    <g clip-path="url(#p318b6a79f8)">
     <use xlink:href="#m20eb47b2f1" x="42.691205" y="9.699646"/>
    </g>
   </g>
   <g id="PathCollection_91">
    <defs>
     <path id="me272c5d65e" d="M 0 0.916633 
C 0.243094 0.916633 0.476264 0.820051 0.648157 0.648157 
C 0.820051 0.476264 0.916633 0.243094 0.916633 0 
C 0.916633 -0.243094 0.820051 -0.476264 0.648157 -0.648157 
C 0.476264 -0.820051 0.243094 -0.916633 0 -0.916633 
C -0.243094 -0.916633 -0.476264 -0.820051 -0.648157 -0.648157 
C -0.820051 -0.476264 -0.916633 -0.243094 -0.916633 0 
C -0.916633 0.243094 -0.820051 0.476264 -0.648157 0.648157 
C -0.476264 0.820051 -0.243094 0.916633 0 0.916633 
z
"/>
    </defs>
    <g clip-path="url(#p318b6a79f8)">
     <use xlink:href="#me272c5d65e" x="29.115066" y="10.679775"/>
    </g>
   </g>
   <g id="PathCollection_92">
    <defs>
     <path id="mb98180c0c4" d="M 0 0.995827 
C 0.264097 0.995827 0.517412 0.890901 0.704156 0.704156 
C 0.890901 0.517412 0.995827 0.264097 0.995827 0 
C 0.995827 -0.264097 0.890901 -0.517412 0.704156 -0.704156 
C 0.517412 -0.890901 0.264097 -0.995827 0 -0.995827 
C -0.264097 -0.995827 -0.517412 -0.890901 -0.704156 -0.704156 
C -0.890901 -0.517412 -0.995827 -0.264097 -0.995827 0 
C -0.995827 0.264097 -0.890901 0.517412 -0.704156 0.704156 
C -0.517412 0.890901 -0.264097 0.995827 0 0.995827 
z
"/>
    </defs>
    <g clip-path="url(#p318b6a79f8)">
     <use xlink:href="#mb98180c0c4" x="33.519934" y="22.632539"/>
    </g>
   </g>
   <g id="PathCollection_93">
    <defs>
     <path id="m30b9af4dce" d="M 0 1.182324 
C 0.313556 1.182324 0.614312 1.057747 0.83603 0.83603 
C 1.057747 0.614312 1.182324 0.313556 1.182324 0 
C 1.182324 -0.313556 1.057747 -0.614312 0.83603 -0.83603 
C 0.614312 -1.057747 0.313556 -1.182324 0 -1.182324 
C -0.313556 -1.182324 -0.614312 -1.057747 -0.83603 -0.83603 
C -1.057747 -0.614312 -1.182324 -0.313556 -1.182324 0 
C -1.182324 0.313556 -1.057747 0.614312 -0.83603 0.83603 
C -0.614312 1.057747 -0.313556 1.182324 0 1.182324 
z
"/>
    </defs>
    <g clip-path="url(#p318b6a79f8)">
     <use xlink:href="#m30b9af4dce" x="21.488769" y="28.145754"/>
    </g>
   </g>
   <g id="PathCollection_94">
    <defs>
     <path id="m24a69815d0" d="M 0 0.601001 
C 0.159387 0.601001 0.312268 0.537675 0.424972 0.424972 
C 0.537675 0.312268 0.601001 0.159387 0.601001 0 
C 0.601001 -0.159387 0.537675 -0.312268 0.424972 -0.424972 
C 0.312268 -0.537675 0.159387 -0.601001 0 -0.601001 
C -0.159387 -0.601001 -0.312268 -0.537675 -0.424972 -0.424972 
C -0.537675 -0.312268 -0.601001 -0.159387 -0.601001 0 
C -0.601001 0.159387 -0.537675 0.312268 -0.424972 0.424972 
C -0.312268 0.537675 -0.159387 0.601001 0 0.601001 
z
"/>
    </defs>
    <g clip-path="url(#p318b6a79f8)">
     <use xlink:href="#m24a69815d0" x="47.191399" y="28.528398"/>
    </g>
   </g>
   <g id="PathCollection_95">
    <defs>
     <path id="mf69506f93f" d="M 0 1.14038 
C 0.302432 1.14038 0.592518 1.020222 0.80637 0.80637 
C 1.020222 0.592518 1.14038 0.302432 1.14038 0 
C 1.14038 -0.302432 1.020222 -0.592518 0.80637 -0.80637 
C 0.592518 -1.020222 0.302432 -1.14038 0 -1.14038 
C -0.302432 -1.14038 -0.592518 -1.020222 -0.80637 -0.80637 
C -1.020222 -0.592518 -1.14038 -0.302432 -1.14038 0 
C -1.14038 0.302432 -1.020222 0.592518 -0.80637 0.80637 
C -0.592518 1.020222 -0.302432 1.14038 0 1.14038 
z
"/>
    </defs>
    <g clip-path="url(#p318b6a79f8)">
     <use xlink:href="#mf69506f93f" x="27.995793" y="22.669371"/>
    </g>
   </g>
   <g id="PathCollection_96">
    <defs>
     <path id="m33b508b8e4" d="M 0 0.790391 
C 0.209614 0.790391 0.410671 0.70711 0.558891 0.558891 
C 0.70711 0.410671 0.790391 0.209614 0.790391 0 
C 0.790391 -0.209614 0.70711 -0.410671 0.558891 -0.558891 
C 0.410671 -0.70711 0.209614 -0.790391 0 -0.790391 
C -0.209614 -0.790391 -0.410671 -0.70711 -0.558891 -0.558891 
C -0.70711 -0.410671 -0.790391 -0.209614 -0.790391 0 
C -0.790391 0.209614 -0.70711 0.410671 -0.558891 0.558891 
C -0.410671 0.70711 -0.209614 0.790391 0 0.790391 
z
"/>
    </defs>
    <g clip-path="url(#p318b6a79f8)">
     <use xlink:href="#m33b508b8e4" x="41.110047" y="25.990407"/>
    </g>
   </g>
   <g id="PathCollection_97">
    <defs>
     <path id="m0360ab3eac" d="M 0 0.723127 
C 0.191776 0.723127 0.375722 0.646934 0.511328 0.511328 
C 0.646934 0.375722 0.723127 0.191776 0.723127 0 
C 0.723127 -0.191776 0.646934 -0.375722 0.511328 -0.511328 
C 0.375722 -0.646934 0.191776 -0.723127 0 -0.723127 
C -0.191776 -0.723127 -0.375722 -0.646934 -0.511328 -0.511328 
C -0.646934 -0.375722 -0.723127 -0.191776 -0.723127 0 
C -0.723127 0.191776 -0.646934 0.375722 -0.511328 0.511328 
C -0.375722 0.646934 -0.191776 0.723127 0 0.723127 
z
"/>
    </defs>
    <g clip-path="url(#p318b6a79f8)">
     <use xlink:href="#m0360ab3eac" x="41.748227" y="10.532453"/>
    </g>
   </g>
   <g id="PathCollection_98">
    <defs>
     <path id="mb2301ca2a2" d="M 0 0.926757 
C 0.245779 0.926757 0.481525 0.829108 0.655316 0.655316 
C 0.829108 0.481525 0.926757 0.245779 0.926757 0 
C 0.926757 -0.245779 0.829108 -0.481525 0.655316 -0.655316 
C 0.481525 -0.829108 0.245779 -0.926757 0 -0.926757 
C -0.245779 -0.926757 -0.481525 -0.829108 -0.655316 -0.655316 
C -0.829108 -0.481525 -0.926757 -0.245779 -0.926757 0 
C -0.926757 0.245779 -0.829108 0.481525 -0.655316 0.655316 
C -0.481525 0.829108 -0.245779 0.926757 0 0.926757 
z
"/>
    </defs>
    <g clip-path="url(#p318b6a79f8)">
     <use xlink:href="#mb2301ca2a2" x="24.443432" y="48.593853"/>
    </g>
   </g>
   <g id="PathCollection_99">
    <defs>
     <path id="m5a27417f50" d="M 0 1.116025 
C 0.295973 1.116025 0.579864 0.998433 0.789149 0.789149 
C 0.998433 0.579864 1.116025 0.295973 1.116025 0 
C 1.116025 -0.295973 0.998433 -0.579864 0.789149 -0.789149 
C 0.579864 -0.998433 0.295973 -1.116025 0 -1.116025 
C -0.295973 -1.116025 -0.579864 -0.998433 -0.789149 -0.789149 
C -0.998433 -0.579864 -1.116025 -0.295973 -1.116025 0 
C -1.116025 0.295973 -0.998433 0.579864 -0.789149 0.789149 
C -0.579864 0.998433 -0.295973 1.116025 0 1.116025 
z
"/>
    </defs>
    <g clip-path="url(#p318b6a79f8)">
     <use xlink:href="#m5a27417f50" x="35.034253" y="14.141857"/>
    </g>
   </g>
   <g id="PathCollection_100">
    <defs>
     <path id="md3bfbac837" d="M 0 0.775195 
C 0.205584 0.775195 0.402776 0.693516 0.548146 0.548146 
C 0.693516 0.402776 0.775195 0.205584 0.775195 0 
C 0.775195 -0.205584 0.693516 -0.402776 0.548146 -0.548146 
C 0.402776 -0.693516 0.205584 -0.775195 0 -0.775195 
C -0.205584 -0.775195 -0.402776 -0.693516 -0.548146 -0.548146 
C -0.693516 -0.402776 -0.775195 -0.205584 -0.775195 0 
C -0.775195 0.205584 -0.693516 0.402776 -0.548146 0.548146 
C -0.402776 0.693516 -0.205584 0.775195 0 0.775195 
z
"/>
    </defs>
    <g clip-path="url(#p318b6a79f8)">
     <use xlink:href="#md3bfbac837" x="30.007851" y="30.595774"/>
    </g>
   </g>
  </g>
 </g>
 <defs>
  <clipPath id="p318b6a79f8">
   <rect x="0" y="-0" width="50.4" height="50.4"/>
  </clipPath>
 </defs>
</svg>
